<?xml version="1.0" standalone="no"?><!DOCTYPE svg PUBLIC "-//W3C//DTD SVG 1.1//EN" "http://www.w3.org/Graphics/SVG/1.1/DTD/svg11.dtd"><svg t="1637892173549" class="icon" viewBox="0 0 1024 1024" version="1.1" xmlns="http://www.w3.org/2000/svg" p-id="8172" xmlns:xlink="http://www.w3.org/1999/xlink" width="48" height="48"><defs><style type="text/css"></style></defs><path d="M625.07733333 431.37066667c-35.65866667 0-64.82133333-29.17333333-64.82133333-64.82133334v-259.41333333H225.024c-47.02933333 0-85.51466667 38.48533333-85.51466667 85.51466667v636.56533333c0 47.02933333 38.48533333 85.51466667 85.51466667 85.51466667h573.952c47.02933333 0 85.51466667-38.48533333 85.51466667-85.51466667V431.37066667h-259.41333334zM232.53333333 338.624c0-19.72266667 16.13866667-35.872 35.872-35.872h194.93333334c19.72266667 0 35.872 16.13866667 35.872 35.872v2.93333333c0 19.72266667-16.13866667 35.872-35.872 35.872H268.40533333c-19.72266667 0-35.872-16.13866667-35.872-35.872v-2.93333333z m519.53066667 403.648c0 19.72266667-16.13866667 35.872-35.872 35.872h-447.78666667c-19.72266667 0-35.872-16.13866667-35.872-35.872v-2.93333333c0-19.72266667 16.13866667-35.872 35.872-35.872h447.79733334c19.72266667 0 35.872 16.13866667 35.872 35.872v2.93333333h-0.01066667z m0-192.544c0 19.72266667-16.13866667 35.872-35.872 35.872h-447.78666667c-19.72266667 0-35.872-16.13866667-35.872-35.872v-2.93333333c0-19.72266667 16.13866667-35.872 35.872-35.872h447.79733334c19.72266667 0 35.872 16.13866667 35.872 35.872v2.93333333h-0.01066667z" p-id="8173" fill="#1296db"></path><path d="M672.55466667 382.208h212.58666666L618.99733333 107.136v221.52533333c0 29.45066667 24.096 53.54666667 53.55733334 53.54666667z" p-id="8174" fill="#1296db"></path></svg>